<svg xmlns="http://www.w3.org/2000/svg" height="40" viewBox="0 -960 960 960" width="40"><path d="M578.667-96Q520-96 479-139.5T438-250q0-46.667 23.667-84.5 23.667-37.834 57.5-64 33.834-26.167 72.167-41.667 38.334-15.499 70.667-18.833-3.334-39-19.667-56.667-16.334-17.667-47.001-17.667-37 0-71.167 23.5Q490-486.334 436-412.667q-59.334 81.333-105.5 114.333-46.167 33-96.167 33-54.333 0-95.166-36Q98.334-337.333 98.334-413q0-33.333 21.833-79.5T192-614.667q39-52 50.667-73.5 11.667-21.5 11.667-38.833 0-9.334-5-14.834t-14.667-5.5q-12 0-28 11.167-16 11.166-37.334 38.166l-76.999-75.666q27.667-37 67.333-59.666 39.666-22.667 81-22.667 50.666 0 84.833 36 34.166 36 34.166 82.667 0 45-19.333 85.333-19.334 40.333-65.334 105.666-43.333 64-55.833 88-12.5 24.001-12.5 45.667 0 21.001 11.5 28.168 11.501 7.166 25.167 7.166 20.334 0 42.001-20.5 21.667-20.5 66.667-78.5 69.666-89.667 125.333-127.5Q533-641.666 600.667-641.666q66.333 0 113.833 45.166Q762-551.333 769-462.999h104.333v106.665H770q-11.667 159.668-76.501 210.001Q628.666-96 578.667-96Zm3-109.666q19.666 0 45.167-28.333 25.5-28.334 35.5-115.668-36.667 6-76.334 31.333-39.667 25.334-39.667 74.001 0 18 8.667 28.334 8.666 10.333 26.667 10.333Z"/></svg>