<svg xmlns="http://www.w3.org/2000/svg" height="40" viewBox="0 -960 960 960" width="40"><path d="M479.588-107.334q-156.358 0-264.306-108.183-107.948-108.184-107.948-264.542 0-156.358 108.166-265.316Q323.667-854.333 480-854.333q7.805 0 15.902.5 8.098.5 20.765 1.833-28.001 35-43.167 76.834-15.167 41.833-15.167 86.833 0 97.306 67.403 164.153 67.402 66.847 164.597 66.847 45.558 0 87.112-13.5 41.555-13.5 76.222-40.833-.334 10.983.166 18.199.5 7.215.5 12.41 0 156.14-109.36 264.932-109.36 108.791-265.385 108.791ZM480-213.333q78.667 0 142.501-43.334Q686.335-300 711.668-363.334q-14 5-31.279 6.833-17.278 1.834-32.389.834-114.819-14.334-195.742-93.188-80.924-78.855-96.591-200.478-1-11.889.667-27.945t8.334-36.39q-67.334 31.667-109.335 95.667-42 64-42 138.001 0 111.753 77.457 189.21 77.457 77.457 189.21 77.457Zm-17-250.334Z"/></svg>