<svg xmlns="http://www.w3.org/2000/svg" height="40" viewBox="0 -960 960 960" width="40"><path d="M479.824-107.334q-156.177 0-264.334-108.156-108.156-108.157-108.156-264.334 0-156.176 108.208-265.343Q323.75-854.333 480-854.333q8 0 15.667.5 7.666.5 21 1.833-28.334 35.333-43.334 77.5-15 42.167-15 86.167 0 96.75 67.542 163.875 67.541 67.125 164.458 67.125 45.333 0 87.167-13.667 41.833-13.666 76.167-40.666.333 10.666.5 18.374.166 7.707.166 12.292 0 156-109.166 264.833Q636-107.334 479.824-107.334Z"/></svg>