<svg xmlns="http://www.w3.org/2000/svg" height="40" viewBox="0 -960 960 960" width="40"><path d="M402.288-11q-30.841 0-59.332-14.462-28.491-14.461-43.622-40.205L46.667-468l25.922-19q22.538-17.146 50.308-20.906 27.769-3.76 61.485 19.365l84.285 61.875v-396.667q0-17.933 13.434-31.3Q295.534-868 313.567-868t31.566 13.367q13.533 13.367 13.533 31.3v354.666h81.001V-910q0-17.933 12.972-31.3 12.972-13.366 31.004-13.366 18.033 0 31.695 13.366 13.661 13.367 13.661 31.3v441.333H611v-396.666q0-17.933 13.397-31.3T655.772-910q17.694 0 31.128 13.367 13.433 13.367 13.433 31.3v396.666H780V-785.01q0-18.44 13.569-31.715Q807.137-830 825.368-830q18.232 0 31.432 13.367t13.2 31.3v608.55q0 70.292-47.984 118.037Q774.033-11 705.333-11H402.288Z"/></svg>