<svg xmlns="http://www.w3.org/2000/svg" height="40" viewBox="0 -960 960 960" width="40"><path d="M798.666-292 481-610.666v-161.668l-79.001 80.667L325-767.666 481-921l246.333 242.333q49.666 49 76.666 114.334 27 65.333 27 131.666 0 38.334-9.166 75.667-9.167 37.333-23.167 65Zm22.001 273.666L685.666-153.667q-43.666 31-95 47.833Q539.333-89.001 481-89.001q-145.333 0-247.333-100-102-99.999-102-244.333 0-53.333 16.167-105.333 16.166-52 51.833-100L19.667-820l56.666-56.666L877.333-76l-56.666 57.666ZM481-195v-163.001L278-561.668Q255.333-529.667 246.499-497q-8.833 32.666-8.833 63.666 0 100.334 71.5 169.334T481-195Z"/></svg>