<svg xmlns="http://www.w3.org/2000/svg" height="40" viewBox="0 -960 960 960" width="40"><path d="M580.666-94.334q-15.766 0-28.05-12.116-12.283-12.117-12.283-28.884 0-18.333 12.283-29.333 12.284-11 28.05-11 53.334 0 89.834-19.711t36.5-46.514q0-16.285-22.167-34.697-22.167-18.412-65.167-29.745l60.937-61.333q55.396 21.333 81.563 52.938 26.167 31.606 26.167 72.623 0 70.755-63 109.263-63 38.51-144.667 38.51ZM195.668-429.666q-59.334-17-84.334-46.167t-25-65.167q0-39.666 25.833-70.666 25.834-31 122.5-63.667 61.334-19.666 79.834-33.333 18.5-13.667 18.5-31.667 0-17.867-20.038-32.434-20.038-14.566-60.819-14.566-26.143 0-42.81 6.5T179.667-762q-12.241 13-27.956 13.833-15.715.834-27.879-9.5-14.831-10.666-15.498-26.359-.666-15.692 8.334-29.307 19.666-22.666 55.166-38.5 35.5-15.833 80.5-15.833 72 0 116.5 34.139t44.5 93.194Q413.334-692 383-661q-30.333 31-116.598 59.804-65.402 21.529-82.568 35.029-17.167 13.501-17.167 24.882 0 13.619 21 25.119t71.334 22.167l-63.333 64.333Zm573.998-139.335L609.001-729.666l44.333-43.333q23.139-24 54.069-24 30.93 0 54.93 24l50.666 50.666q24 24 24 54.93t-24 54.069l-43.333 44.333ZM147.334-107.334v-160.665l405-405.001L713-512.334l-405.001 405H147.334Z"/></svg>