<svg xmlns="http://www.w3.org/2000/svg" height="40" viewBox="0 -960 960 960" width="40"><path d="M14.667-517.333 265-964.666l248.333 447.333H14.667Zm251.28 451q-78.853 0-133.9-54.781Q77-175.894 77-254.416q0-78.522 54.95-133.72 54.95-55.197 133.667-55.197 78.716 0 133.55 55.197Q454-332.938 454-254.416q0 78.522-54.738 133.302-54.737 54.78-133.315 54.78Zm260.386 0v-377h377v377h-377Zm189.667-451Q645.667-576 601.001-616.506q-44.665-40.505-70.333-70.833-25.668-30.328-35.001-54.789-9.334-24.462-9.334-53.714 0-56.491 37.167-93.324t96.166-36.833q27.334 0 53.167 13.5 25.833 13.5 43.167 36.166 15-22.666 42.045-36.166 27.045-13.5 54.621-13.5 58.34 0 95.003 36.737 36.664 36.737 36.664 93.479 0 29.392-9.298 54.13-9.298 24.738-34.835 54.523-25.537 29.785-70.535 70.291Q784.666-576.333 716-517.333Z"/></svg>