<svg xmlns="http://www.w3.org/2000/svg" height="40" viewBox="0 -960 960 960" width="40"><path d="M480-28.667Q480-119 510.5-195T596-326q55-55 130.5-85.5T894.333-442q0 91.333-31.334 166.833-31.333 75.5-86.333 130.5t-130.5 85.5q-75.5 30.5-166.166 30.5Zm0 0Q480-119 449.5-195t-86.333-131q-55.834-55-131-85.5Q157-442 66.334-442q0 91.333 31 166.833t85.667 130.5q54.666 55 130.5 85.5 75.833 30.5 166.499 30.5Zm-.333-558q33.666 0 56.833-23.242 23.166-23.241 23.166-55.833 0-33.258-23.219-56.425-23.22-23.166-56.447-23.166-33.333 0-56.167 23.22Q401-698.893 401-665.667q0 32.56 22.833 55.78 22.834 23.22 55.834 23.22ZM480-356.334q-43.118 0-77.059-24-33.941-24-49.274-64-6.667 0-12.551.5-5.885.5-12.783.5-56.465 0-95.899-39.364-39.433-39.364-39.433-95.731 0-22.904 8.833-45.238 8.833-22.333 25.167-42-17-19.666-25-41.75-8-22.083-8-45.44 0-56.662 39.615-96.569 39.615-39.907 95.124-39.907 6.593 0 12.427.5 5.833.5 12.5.5Q369-927.666 402.915-952q33.915-24.333 77-24.333T557.5-952q34.5 24.334 49.973 63.667 6.527 0 12.027-.5 5.5-.5 12.167-.5 55.85 0 95.425 39.865 39.574 39.865 39.574 96.468 0 23-8.167 45.333-8.166 22.334-24.5 42 16 19.667 24.334 41.837 8.333 22.169 8.333 45.377 0 56.294-39.574 95.707-39.575 39.412-95.425 39.412-6.667 0-12.09-.5t-12.577-.5q-15 40-49.25 64t-77.75 24Z"/></svg>