<svg xmlns="http://www.w3.org/2000/svg" height="48" viewBox="0 -960 960 960" width="48"><path d="M480-58q-14 0-27.085-5.478Q439.829-68.957 429-79L79-429q-10.043-10.829-15.522-23.915Q58-466 58-480t5.478-27.537Q68.957-521.073 79-531l350-350q10.829-10.956 23.915-15.978Q466-902 480-902t27.537 5.022Q521.073-891.956 531-881l350 350q10.956 9.927 15.978 23.463Q902-494 902-480q0 14-5.022 27.085Q891.956-439.829 881-429L531-79q-9.927 10.043-23.463 15.522Q494-58 480-58Zm-36-370h73v-253h-73v253Zm36 123q15 0 26-10.5t11-25.5q0-15-11-26t-26-11q-15 0-25.5 11T444-341q0 15 10.5 25.5T480-305Z"/></svg>